<svg enable-background="new 0 0 300 120" viewBox="0 0 300 120" xmlns="http://www.w3.org/2000/svg"><g fill="#e7c9ac"><path d="m243.4 27.3c2.4-.4 4.8-.8 7.3-1.1 4.6-.6 9.1-1.4 13.6-2.7 1.1-.3 2.2-.4 3.3-.3.5 0 .9.1 1.3.3.5.2.7.6.8 1.2 0 .5-.4.7-.8.9-2 .9-4.2 1.3-6.3 1.7-7.2 1.5-14.4 2.5-21.7 3.2-.5 0-1 .2-1.4.6-8.6 7.9-18.1 14.6-28.6 19.9-.4.2-.7.5-1 .9-.6 1.1-1.3 2.1-2 3.1-2.2 3.2-1.4 5.6 2.2 7 1.6.6 3.1.1 4.7-.1 4.2-.5 8-2.1 11.4-4.7 1-.8 2.1-1.4 3.2-2 .3-.1.5-.4.7-.6 3-3.2 6.3-6.1 9.9-8.6 1-.7 2.1-1.4 3.5-1.4 1 0 1.8.3 2.6 1 1.1 1 1.4 1 2.7.3.5-.3.9-.6 1.4-.8.4-.2.7-.4 1.2-.4.6 0 1.3-.1 1.7.5s-.1 1.1-.4 1.6c-.9 1.2-1.8 2.4-2.7 3.6-.8 1.1-1.4 2.3-1 3.7.5 1.7 2.5 2.5 4 1.5 2.2-1.4 4.1-3.1 6-4.9 1.4-1.3 2.7-2.6 4.4-3.5.4-.2.5-.5.7-.9.5-1 1.1-2 1.9-2.8.4-.4.8-.8 1.3-.9.8-.1 1.8-.2 2.3.6s.1 1.6-.3 2.3c-.9 1.4-2.3 2.2-3.7 3s-2.8 4-2.1 5.3c1 2 .6 3.7-.3 5.4 0 .1 0 .2-.1.3.4.1.7-.1 1-.1 5.6-1.4 10.2-4.5 14.2-8.5 1.4-1.4 2.8-2.7 4.5-3.7.3-.2.5-.5.7-.8.5-1 1.1-2 1.9-2.9.5-.6 1.1-1 2-1 1.7.1 2.3 1 1.5 2.6-.9 1.6-2.4 2.5-3.9 3.3-1.4.8-2.7 3.9-2 5.4.9 1.9.7 3.6-.3 5.3-.1.1-.2.3-.1.5 2-.4 3.9-1.1 5.7-1.9s3.4-2.1 5.2-3c.1.5-.2.7-.5.9-2.3 2.1-4.8 4-7.5 5.6-1.1.7-2.5.9-3.8 1.3-.6.2-1 .4-1.2 1-.1.3-.4.6-.5.9-1.9 3.5-4.9 4.8-8.8 4.7-.9 0-1.2-.4-1-1.3.2-1 .9-1.7 1.6-2.3 2.1-1.9 4.6-3.2 7.2-4.3.6-.3 1-.6 1.3-1.2 1.2-2.5.8-5.2.6-7.8 0-.5-.3-.4-.6-.2-1 .7-2.1 1.3-3.1 2-3.5 2.3-7.2 4.3-10.5 6.9-1.3 1-3 1.2-4.5 1.7-.6.2-1 .4-1.2 1-.2.5-.5.9-.8 1.3-1.9 3.3-5 4.4-8.6 4.3-.8 0-1-.5-.9-1.2.1-1 .8-1.7 1.5-2.4 2.1-1.9 4.5-3.2 7-4.2 1-.4 1.5-1 1.8-1.9.9-2.4.6-4.8.4-7.3-.1-.7-.4-.3-.7-.1-1.9 1.1-3.7 2.3-5.5 3.7-2.4 1.9-5.1 3-8.2 2.1-.8-.2-1.6-.4-2.2-1-.6-.5-1.2-.5-1.9-.3-1.3.5-2.4 1.2-3.5 1.9-2.3 1.5-4.8 2.2-7.6 1.7-2-.4-3-1.2-3.2-3-.3-.1-.5.1-.7.3-2.5 1.6-5 3.2-7.5 4.7-4.7 2.7-9.8 3.1-15 2.3-.7-.1-1.3-.3-1.9-.7-1-.6-1.6-1.4-1.5-2.6 0-2.2.4-4.4 1.6-6.3.1-.1.1-.3.2-.5-.6-.1-1 .1-1.4.3-2.4.9-4.7 1.9-7.1 2.8-.6.3-1.2.7-1.8 1-3.9 2.6-7.9 5-12.2 7.1-2.5 1.2-5.1 1.5-7.9 1.4-1.3 0-2.5-.6-3.5-1.5-.6-.5-.9-1.2-.9-2 .1-1.7.4-3.3 1.2-4.8 3.8-6.6 9.3-11.2 16.6-13.5 1.1-.3 2.2-.4 3.3-.3.7.1 1.4.3 1.6 1.2.2.8-.3 1.2-.9 1.6-1.9 1.3-4 1.8-6.2 1.6-2.4-.2-4 .9-5.4 2.6-1.9 2.3-3.7 4.7-5 7.4-.4.9-.7 1.8-.7 2.8 0 1.6.9 2.5 2.5 2.7 1.9.2 3.7-.3 5.4-.9 3.7-1.3 7.1-3.2 10.2-5.5 2.8-2 5.8-3.4 8.9-4.7 3.4-1.3 6-3.6 8-6.6 3.4-5.1 7.6-9.5 11.9-14 .2-.3.5-.5.7-.8 0 0 0-.1 0-.2-2.9.2-5.7.4-8.6.6-5.6.4-11.1.8-16.7 1.1-6.6.4-13.1-.3-19.6-1.2-.9-.1-1.8-.1-2.7-.4-1.4-.4-2.5.1-3.7.9-2.7 2.1-5.1 4.4-7.4 7-3.5 4-6.5 8.4-10.4 12-5 4.6-9.8 9.3-14.7 14-.8.8-1.7 1.5-2.6 2.1-.4.3-.9.6-1.4.7-.6.2-1.3.2-1.8-.3s-.4-1.1-.2-1.6c.3-1 1-1.8 1.7-2.4 2.8-2.6 5.8-5 8.8-7.3 1.6-1.2 3-2.7 4.4-4.2 1.2-1.3 2.3-2.7 3.7-3.9 2.7-2.3 5-5 7.2-7.9 2-2.6 3.9-5.3 6.1-7.9-3.2-.8-6.4-1.5-9.6-2-4.1-.7-8.1-1.1-12.3-1.2-3.6-.1-7.2-.8-10.8-.8-6.7 0-13.3-.1-19.9 1.2-1.1.2-2.2.5-3.2 1.2-.5.3-.9.7-.9 1.3.1.6.6.8 1 .9 1.1.4 2.1.7 3.2 1.1.4.1.9.3.8.8-.1.4-.7.5-1.1.4-2.8-.4-5.4-1.5-7.7-3.2-1-.8-.9-1.6.2-2.3 1.7-1.1 3.7-1.5 5.6-2 5.9-1.5 11.9-1.7 17.9-1.7 7.2 0 14.4.5 21.6.7 5.7.1 11.3 1.2 17 2 .6.1 1.1 0 1.6-.4 5-3.7 9.8-7.6 14.4-11.8 2.2-2 4.7-3.5 7.7-3.7.6 0 1.2 0 1.7.1 1.5.3 2 1.3 1.3 2.7-.5.9-1.2 1.6-1.9 2.3-2 1.8-4.2 3.4-6.4 4.8-3.2 2-6.4 4-9.7 6.1 1.1.3 2.1.3 3.1.4 3.2.4 6.4.8 9.6 1 4.5.4 8.9 0 13.4-.4 7.4-.8 14.9-1.4 22.4-1.4.9 0 1.6-.2 2.2-.9 1.1-1.3 2.3-2.4 3.3-3.8 3.8-4.9 8.5-8.8 13.6-12.2 2-1.4 4-2.7 6.2-3.8 2.1-1 4.2-1.6 6.5-1.5 2.4.1 3.3 1.6 2.3 3.7-.4.8-.5 1.6-.8 2.4-1 2.7-2.8 5-4.8 7-2.3 2.2-4.7 4.2-7 6.3-.3.3-.6.5-.9.8.6-.4.6-.3.6-.2zm-14.6 1.7c4.1-.3 7.9-.8 11.6-1.3.3 0 .6-.1.8-.3 3.3-3.1 6.6-6.2 9.3-9.9.7-.9 1.3-1.9 1.6-3 .4-1.2.1-1.7-1.1-2.1-.4-.2-.9-.1-1.3-.1-1.5.2-2.8.9-4.1 1.6-3 1.8-5.7 4-8.3 6.4-2.9 2.7-5.6 5.6-8.5 8.7zm8.8 1.6c-3.7.2-7.1.5-10.5.7-.4 0-.6.3-.9.5-2.5 2.9-5 5.8-7.5 8.7-.9 1.1-1.8 2.2-2.4 3.5-.1.3-.5.6-.2 1 .3.3.7.3 1.1.2.9-.2 1.7-.6 2.5-1 2.7-1.4 5.1-3.2 7.5-5 3.6-2.7 6.9-5.5 10.4-8.6zm-4.2 25.4c-.1 1.6.9 2.3 2.2 1.8.5-.2 1-.5 1.4-.8 2.4-1.9 4.4-4.1 6.3-6.5.4-.5.7-1.1.9-1.7.4-1.2-.1-2-1.4-2-.6 0-1 .2-1.5.6-2.4 2.3-4.7 4.6-7.1 6.9-.6.5-.9 1.1-.8 1.7z"/><path d="m126.1 59.3c4.1-.7 7.6-2.7 10.9-4.9.3.5 0 .7-.2.8-3.4 2.9-6.6 5.9-11.1 6.9-.8.2-1.3.5-1.6 1.3-.2.5-.6.9-.9 1.4-1.9 3.2-5 4.1-8.5 4-.7 0-.9-.4-.9-1 .1-.9.6-1.6 1.2-2.2 2-2 4.4-3.4 7-4.4 1.4-.6 2-1.5 2.4-2.8.6-2.2.3-4.4.2-6.6 0-.6-.3-.4-.6-.2-1.7 1-3.5 2.1-5 3.3-2.2 1.8-4.6 3.2-7.4 3.9-2.3.5-4.4 1.5-6.6 2.3-1.3.5-2.6.9-4 .9-.6 0-1.1 0-1.5-.5-.3-.6-.2-1.2.2-1.7 1.3-1.8 2.8-3.5 4.2-5.2.8-1 1.7-1.9 2.5-2.8.7-.8.8-1.6.3-2.3s-1.5-.9-2.4-.5c-.7.3-1.2.7-1.8 1.2-.9.8-1.9 1.6-2.7 2.5-2.7 2.7-5.8 4.7-9.1 6.4-.3.1-.5.2-.8.4-2.4 1-3.2.4-2.9-2.2.1-.6.2-1.3.4-1.9s.4-1.2.7-2c-1.3.4-2.5.8-3.3 1.6-2.8 2.7-6.4 3.5-10 4.2-2.3.5-4.7 1.1-7.1.6-3.5-.8-6 .5-8.2 3.1-.3.4-.6.7-.8 1.1-3.2 5.9-7.9 10.8-12.1 16-7.1 8.8-14.8 17-23.8 24.1-4.3 3.4-8.9 6.5-14.1 8.5-.7.3-1.5.8-2.1.3-.6-.6-.4-1.5-.2-2.3.2-1.1.7-2.1 1.4-3 1.6-2 3.4-3.9 5.2-5.8 11.9-12 24.3-23.5 36.1-35.5 1.6-1.7 3.5-3.1 5.2-4.7 1.6-1.4 1.3-3.7-.5-4.8-1-.6-1.3-1.6-.9-2.9.4-1 1.1-1.7 1.9-2.3 2.4-1.7 5-2.8 8-2.7 2.6.1 4.9-.8 7.1-2.1 6.8-4.1 13.6-8.2 20.4-12.2.4-.3.9-.5 1.4-.7 1.1-.5 1.9-.1 2.2.9.2.6-.8 2.1-1.4 2.1-1.9.2-3.6 1-5.3 1.9-6.6 3.6-13 7.6-18.6 12.6-.8.7-1.5 1.5-2.1 2.4-1.1 1.8-.5 3.3 1.6 3.8 1.7.4 3.4.2 5.1-.1 1.6-.2 3.2-.5 4.8-.8.8-.1 1.7-.3 2.4-.8 3.2-2 6.6-3.6 9.9-5.5 1.4-.8 2.8-1.7 4-2.9.4-.4.8-.7 1.3-1 .4-.3.8-.3 1.2.1s.1.8-.2 1.1c-1.1 1.1-2.1 2.2-3.2 3.3s-2.2 2.2-2.9 3.7c-.2.5-.5.9-.1 1.4s.9.5 1.5.4c1.5-.3 2.7-1 3.9-1.8 2.4-1.5 4.2-3.7 6.2-5.7 1.1-1.2 2.3-2.4 3.7-3.3 1-.6 2.2-1 3.4-1.1 1.5-.1 2.6 1 2.5 2.5 0 1.2-.5 2.3-1.1 3.4-.7 1.3-1.5 2.4-2.3 3.6-.7 1.1-1.5 2.2-1.9 3.5-.2.7 0 1.1.8 1 3.1-.1 5.9-1.2 8.5-2.8s4.9-3.7 7.1-5.9c1.1-1.1 2.3-2.1 3.6-2.9.4-.2.5-.5.7-.9.5-1 1.1-2 1.8-2.8.4-.4.8-.9 1.4-.9.8-.1 1.7-.2 2.2.6s.2 1.6-.3 2.3c-.9 1.4-2.3 2.2-3.7 3s-2.8 3.9-2.1 5.3c1 1.9.6 3.7-.3 5.4.2.1.2.2.1.3zm-76.1 12c-.5.1-1 .4-1.5.7-1.5 1-2.9 2.2-4.2 3.5-6 5.9-12 11.8-18 17.8-4 4-8.3 7.8-12 12.1-.5.5-.8 1.1-1 1.7-.2.7.1 1 .8.9.7-.2 1.4-.4 2-.7 3.2-1.3 6-3.2 8.5-5.5 7-6.4 13.5-13.3 19.8-20.4 2-2.2 3.9-4.4 5.6-6.9.4-.6.8-1.2 1-2 .2-.7-.1-1.2-1-1.2zm7.3-16.9c0 .8.2 1.6.7 2.3.6.8 1 .9 1.7.2.9-1 1.5-2.2 1.9-3.4.2-.7.2-1.4-.4-1.9-.7-.6-1.5-.6-2.2-.2-1.1.7-1.7 1.7-1.7 3z"/><path d="m120.2 86.3c.4-.1.4-.4.6-.6.5-.6 1-1.3 1.7-1.8s1.4-.8 2.2-.4.8 1.2.7 2c-.2 1.4-.4 2.9-.6 4.3 0 .3-.3.7.1 1 .3.2.6-.1.9-.2.2-.1.5-.5.7-.1.1.3-.3.4-.4.5-.6.4-1.3.6-2 .8-.8.2-1.1-.1-1-.9.2-1.5.4-3.1.6-4.6.1-.6.4-1.4-.3-1.8-.7-.3-1.2.4-1.7.9-1.2 1.4-1.8 3.1-2.1 4.9-.1.4.1 1.1-.4 1.3-.4.1-.9.1-1.2 0s0-.6 0-.9c.3-1.8.5-3.6.8-5.5.1-1 0-1.1-1-.8-.2.1-.4.3-.6 0s.2-.3.4-.5h.1c.9-.3 1.9-1 2.6-.5.6.4 0 1.5-.1 2.4z"/><path d="m135.3 89.2c-.6.8-1.1 1.6-1.8 2.1-.8.6-1.7 1.1-2.7.6s-1.2-1.5-1.2-2.5c0-3.3 2.9-6 6.2-6 .5 0 1.2.4 1.6-.4 0-.1.3-.1.4 0 .2.1 0 .3 0 .5-.4 2.1-.8 4.2-.9 6.3 0 1.3 0 1.3 1.2.8.2-.1.4-.4.6-.1s-.1.4-.3.5c-.7.4-1.4.7-2.2.9-.7.2-.9-.1-.9-.7s0-1.2 0-2zm-3.9-.4v.8c.2 1.2.9 1.6 2 1 .7-.4 1.2-1.1 1.6-1.8.7-1.3.9-2.7 1.1-4.1.1-.6-.1-.8-.7-.8-.5 0-1 .1-1.4.4-1.9.9-2.5 2.6-2.6 4.5z"/><path d="m148 86c0-.4 0-.6 0-.9 0-.7-.5-.8-1-.6-.6.3-1.1.8-1.5 1.4-1 1.5-1.5 3.1-1.7 4.9-.1.4-.1.9-.8.9-.8 0-1-.2-.9-1 .4-1.8.6-3.6.8-5.5.1-1 0-1.1-.9-.8-.2.1-.4.3-.6 0-.2-.4.2-.4.4-.5.7-.3 1.4-.6 2.2-.7.5-.1.7.1.7.6-.1.5-.2 1-.3 1.5 0 .2-.2.5 0 .6.3.1.4-.2.5-.4.5-.7 1-1.3 1.6-1.8.7-.5 1.4-.9 2.2-.4.8.4.8 1.2.7 2-.2 1.5-.4 2.9-.6 4.4 0 .3-.2.6.1.8.3.3.6-.1.9-.1.3-.1.6-.5.7-.2.2.4-.3.5-.5.6-.4.2-.8.4-1.2.6-1.5.5-1.8.3-1.6-1.3.1-1.1.3-2.1.4-3.2.3-.2.3-.6.4-.9z"/><path d="m177.9 89.7c-.8.6-1.3 1.3-2 1.8-.8.5-1.6.8-2.5.4s-1.1-1.3-1.2-2.2c-.2-3.3 2.7-6.3 6-6.3.6 0 1.3.3 1.8-.4 0-.1.3-.1.4 0 .2.2.1.4 0 .6-.5 2.1-.8 4.2-.9 6.3-.1 1.2 0 1.2 1.1.8.2-.1.5-.4.7-.2.3.4-.2.5-.4.6-.6.4-1.3.7-2 .9s-.9-.1-1-.7c0-.6 0-1.1 0-1.6zm.2-5.8c-2.7 0-5.1 3.9-3.9 6.3.3.6.7.8 1.4.6.8-.3 1.4-.9 1.8-1.7.8-1.4 1.1-2.9 1.3-4.4.1-.6-.1-.9-.6-.8z"/><path d="m99.9 96.4c-.7 0-1.2 0-1.5-.6-.1-.2 0-.5.2-.6.6-.3 1 0 1.4.3.4.4.7.1 1-.1.7-.5 1.1-1.2 1.2-2 .6-2.9.8-5.9 1.2-8.8.1-.7-.4-.4-.7-.5-.2 0-.5.1-.5-.2s.3-.4.5-.3c.8.1 1-.3 1-1 .1-1 .4-1.9.9-2.7.8-1.2 2.3-1.9 3.6-1.6.4.1.7.2.8.6.1.2-.1.3-.2.4-.3.2-.7.2-1 0-1-.5-1.3-.4-1.9.6-.5.9-.6 1.8-.7 2.8-.1.7 0 1.1.8.9.2 0 .6-.1.6.2 0 .4-.4.3-.7.3-.7-.1-1 .2-1 .9-.2 2.1-.4 4.1-.7 6.2-.2 1.3-.6 2.6-1.4 3.7-.8 1-1.8 1.4-2.9 1.5z"/><path d="m97.9 35.9c-.1-1.4.4-2.1 1.9-2.3.8-.1 1.8-.6 2.4.2.6.7-.1 1.5-.4 2.2s-.7 1.3-1 2c-.8 1.4-.6 2.8.4 4 .4.4.7.9 1 1.3.2.3.3.6.1.9-.2.4-.6.3-1 .3-1-.2-1.5-1-1.9-1.8-.8-1.5-1.1-3.2-1.3-4.9-.1-.6-.2-1.3-.2-1.9z"/><path d="m185.1 90.6c.2-2.9.8-5.9 1.2-8.9 0-.3.1-.6.1-1 .1-1.4.1-1.4-1.2-1.2-.2 0-.3.1-.4-.1s.1-.3.2-.4c.9-.4 1.8-.6 2.8-.7.7 0 .5.5.5.8-.2 1.8-.5 3.6-.8 5.4s-.6 3.6-.7 5.4c-.1 1.1 0 1.2 1 .7.2-.1.5-.5.7-.1.2.3-.3.5-.5.6-.5.3-1 .5-1.5.7-1.2.4-1.4.3-1.4-1.2z"/><path d="m266.6 84.4c.1.5-.4.6-.7.9-1.4.9-2.8 1.8-4.2 2.6-.9.5-.9 1.1-.7 1.9.2.9.8 1.4 1.7 1.4s1.7-.4 2.4-.9c.2-.1.4-.5.6-.2.3.3-.2.4-.3.6-1 .8-2.2 1.3-3.5 1.4-1.4.1-2.4-.7-2.8-2.1-.8-3.3 2-6.9 5.3-6.7.6 0 1.1.2 1.2 1 .2.8.7-.3 1 .1zm-5.8 3.4c1-.6 1.9-1.2 2.8-1.7.7-.4 1-1.3.6-1.8-.6-.7-1.3-.3-1.8.1-1 .8-1.4 1.9-1.6 3.4z"/><path d="m215.8 84.7c.2-.2.4-.3.6-.5.2.6-.2.8-.5 1-1.4.9-2.8 1.8-4.2 2.6-.9.5-1 1.1-.7 2 .3 1 .9 1.4 1.8 1.4s1.6-.5 2.3-.9c.2-.1.3-.4.6-.2.3.3-.1.5-.3.6-1 .9-2.2 1.3-3.5 1.4-1.3 0-2.2-.6-2.6-1.7-1.2-3.1 1.5-7.1 4.8-7.1 1.2 0 1.5.2 1.7 1.4zm-5 3.1c1.1-.7 2-1.3 2.9-1.8.8-.4.8-1.1.5-1.7-.4-.7-1.1-.4-1.6-.1-1.1.8-1.5 2-1.8 3.6z"/><path d="m203.4 83.3c.5 0 1 0 1.5.3.3.1.5.3.4.7s-.4.5-.8.4c-.3 0-.6-.2-.9-.4-.7-.6-1.5-.5-2 .1-.5.7-.3 1.3.3 1.8s1.3.9 1.9 1.4c.8.6 1.4 1.3 1.2 2.4s-1 1.5-1.9 1.8c-1.2.4-2.4.3-3.5-.2-.4-.2-.8-.5-.5-1s.8-.3 1.2-.1c.2.1.3.2.4.4.7.8 1.6.8 2.3.1.6-.6.5-1.5-.3-2.2-.6-.5-1.3-1-1.9-1.5-1.4-1.2-1.2-2.7.4-3.5.7-.4 1.4-.5 2.2-.5z"/><path d="m273.4 83.3c.6 0 1.2 0 1.6.3.3.1.5.3.4.7s-.4.4-.8.4c-.3 0-.6-.2-.9-.4-.6-.5-1.4-.5-1.9.1-.6.7-.4 1.3.2 1.8s1.3.9 2 1.4c.8.6 1.4 1.3 1.2 2.4-.2 1-1 1.5-1.9 1.8-1.2.4-2.4.4-3.5-.1-.4-.2-.9-.5-.6-1s.8-.3 1.3-.1c.2.1.3.3.5.5.5.6 1.4.6 2.1.1.6-.5.7-1.2.2-1.9-.5-.6-1.1-.9-1.6-1.4-.9-.7-1.9-1.3-1.5-2.6s1.6-1.7 2.8-1.9c.1-.1.3-.1.4-.1z"/><path d="m233.7 89.9c1.1-1.4 1.8-2.8 2.2-4.3.3-1.1.3-1.1-.6-1.8.5-.3 1.1-.2 1.6-.2s.3.4.2.6c-.4 1.5-1 2.9-1.7 4.2-.6 1.1-1.3 2.2-2.1 3.1-.2.2-.3.5-.6.4s-.3-.4-.3-.6c-.4-1.8-.7-3.6-1.3-5.4-.3-.8-.3-2-1.7-1.3-.1 0-.2 0-.2-.1-.1-.1 0-.2.1-.3.7-.4 1.4-.8 2.2-1 .5-.1.6.3.7.6.7 1.7 1 3.5 1.5 5.3-.1.3-.1.5 0 .8z"/><path d="m223 84.1c-.1.4-.1.8-.2 1.2 0 .2-.1.3.1.4s.3-.1.4-.2c.4-.6.8-1.2 1.4-1.6.5-.4 1-.7 1.6-.6.3 0 .7.1.7.5.1.4-.3.7-.6.7-3.2-.1-3.2 2.6-4.1 4.6-.3.6-.3 1.3-.4 2-.1.5-.2.6-.7.7-.9.1-1-.2-.9-1 .3-1.8.6-3.7.8-5.6.1-.8-.1-1.1-.9-.7-.2.1-.5.4-.7.1-.2-.4.3-.4.5-.5.6-.2 1.2-.4 1.8-.6.9-.3 1.4-.2 1.2.6zm-.1 2c.1-.2 0-.2-.1-.2 0 0-.1.1-.1.1 0 .1.1.2.1.2.1 0 .1-.1.1-.1z"/><path d="m154.2 89.4c0-2.8 1.7-5.2 4-6 .8-.3 1.6-.3 2.4 0 .3.1.7.3.5.7-.1.4-.5.4-.8.4s-.6-.1-.8-.3c-.6-.6-1.2-.3-1.7.1-1.5 1.1-2.3 4.1-1.6 5.8.3.8 1 1.1 1.8 1s1.6-.4 2.2-.9c.2-.1.3-.2.5 0 .1.2 0 .3-.1.4-1 1.1-3.6 1.7-5 1.1-1.1-.5-1.4-1.5-1.4-2.3z"/><path d="m248.6 89.1c.1-2.5 1.8-4.8 4-5.6.6-.2 1.3-.3 1.9-.2.4.1.9.1 1.1.6.1.2 0 .3-.2.4-.5.3-1 .3-1.4-.1-.8-.7-1.4-.3-2 .2-1.3 1.1-2 3.9-1.4 5.6.3.8.9 1.2 1.7 1.1.9 0 1.6-.4 2.3-.9.2-.1.3-.2.5 0 .1.2 0 .3-.1.4-1 1.1-3.6 1.7-5 1.1-1.2-.5-1.4-1.6-1.4-2.6z"/><path d="m112.9 83.9c-.3 2-.5 4-.8 5.9 0 .3-.2.8.1 1 .3.3.7-.1 1-.2.2-.1.5-.4.7-.1.2.4-.2.5-.4.6-.6.4-1.3.6-2 .8-.9.2-1.1-.2-1-.9.2-1.4.3-2.8.5-4.1.1-.6.2-1.2.2-1.8.1-.9-.1-1-.9-.7-.2.1-.5.4-.7 0s.3-.4.4-.5c.7-.3 1.4-.5 2.1-.7.6 0 .9.1.8.7z"/><path d="m244 83.8c-.3 2.1-.6 4.1-.8 6.1 0 .3-.2.7.1.9.3.3.6-.1.9-.2s.5-.5.7-.2c.2.4-.3.5-.5.6-.5.3-1 .5-1.5.7-1.2.4-1.5.2-1.4-1.1s.3-2.6.5-3.9c.1-.6.1-1.2.2-1.7.1-.8-.2-1-.9-.7-.2.1-.5.4-.7 0s.3-.4.5-.5c.7-.3 1.4-.5 2.1-.6.6 0 1 .1.8.6z"/><path d="m167.8 84.1c-.3 1.9-.5 3.8-.8 5.8 0 .3-.2.8.1 1s.7-.1 1-.2c.2-.1.4-.5.6-.1.2.3-.2.4-.4.5-.6.4-1.2.7-1.9.8-1 .2-1.3 0-1.1-1 .2-1.8.5-3.7.7-5.5.2-1.3.2-1.3-1.1-.9-.2.1-.4.2-.5-.1s.2-.3.3-.4c.7-.4 1.4-.6 2.2-.7s1 .1.9.8z"/><path d="m243.1 81.7c-.4 0-.7-.3-.7-.7 0-.6.7-1.2 1.2-1.1.5 0 .7.3.6.8.1.5-.5 1.1-1.1 1z"/><path d="m167 81.7c-.5 0-.8-.2-.8-.7s.6-1.2 1.2-1.2c.5 0 .7.3.7.7 0 .8-.4 1.1-1.1 1.2z"/><path d="m113.2 80.5c-.1.7-.4 1.1-1.1 1.2-.5 0-.8-.2-.8-.7.1-.7.5-1 1.1-1.1.5-.1.7.3.8.6z"/></g></svg>